# xmcd CD database file
#
# Track frame offsets:
#	150
#	24295
#	41818
#	54678
#	74510
#	91102
#	113593
#	132708
#	154018
#	168594
#	187451
#	207169
#	221579
#
# Disc length: 3220 seconds
#
# Revision: 0
# Processed by: cddbd v1.5.2PL0 Copyright (c) Steve Scherf et al.
# Submitted via: CDex 1.51
#
DISCID=c20c920d
DTITLE=Rudefelt Karin and Doctor Blues - Breakin the chain
DYEAR=2006
DGENRE=Blues
TTITLE0=Down to the bottom
TTITLE1=It's a curse
TTITLE2=Case is closed
TTITLE3=Breakin the chain
TTITLE4=I'm gonna close the door
TTITLE5=My man won't set me free
TTITLE6=Why do people cry
TTITLE7=Cold wind blowin
TTITLE8=Mississippi queen
TTITLE9=My baby and the booze
TTITLE10=The blues is coming donw hard on me
TTITLE11=Pick your battles
TTITLE12=Hold your horses
EXTD=YEAR: 2006
EXTT0=
EXTT1=
EXTT2=
EXTT3=
EXTT4=
EXTT5=
EXTT6=
EXTT7=
EXTT8=
EXTT9=
EXTT10=
EXTT11=
EXTT12=
PLAYORDER=
